<?xml version="1.0" encoding="utf-8"?>
<svg viewBox="711.056 485.079 570.742 570.742" width="552.57" height="552.57" xmlns="http://www.w3.org/2000/svg">
  <defs>
    <style>
      .cls-1{
      fill:gray;
      }
      .cls-2{
      fill:#1a1a1a;
      }
    </style>
  </defs>
  <g>
    <path class="cls-1"
      d="M1111.97,665.9v80.72c0,1.69-.06,3.37-.15,5.03-.6,11.1-3.07,21.7-7.1,31.5-3.75,9.11-8.84,17.52-15.04,24.98-10.04,12.12-22.99,21.75-37.77,27.83-11.36,4.67-23.79,7.25-36.84,7.25h-59.75c0-32.96,26.56-59.72,59.44-60.05,.1,0,.2,0,.31,0,20.24,0,36.67-16.33,36.83-36.53h0v-20.66c0-33.17,26.89-60.06,60.06-60.06Z"/>
    <path class="cls-2"
      d="M1077.05,630.84c0,33.17-26.89,60.06-60.06,60.06h-39.38c-9.59,.08-18.3,3.83-24.82,9.91-7.21,6.72-11.71,16.3-11.71,26.93,0,.11,0,.2,0,.31h0v121.98c0,33.17-26.89,60.06-60.06,60.06v-182.34c0-45.6,31.5-83.84,73.92-94.15,6.59-1.61,13.45-2.54,20.49-2.72,.72-.02,1.45-.03,2.18-.03h99.44Z"/>
    <path class="cls-2" d="M986.47,716.28h40.06v21.48c0,11.04-8.96,20-20,20h-40.06v-21.48c0-11.04,8.96-20,20-20Z"/>
  </g>
  <g transform="translate(996.5 770.5)">
    <g id="outerRing">
      <g transform="translate(-996.5 -770.5)">
        <circle class="cls-2" cx="1176.62" cy="950.58" r="30"/>
        <path class="cls-2"
          d="M 996.5 494.18 C 843.91 494.18 720.21 617.88 720.21 770.46 C 720.21 923.04 843.91 1046.75 996.5 1046.75 C 1058.11 1046.75 1115.01 1026.58 1160.96 992.49 C 1159.95 992.11 1158.95 991.69 1157.97 991.24 C 1146.17 985.79 1137.16 975.31 1133.71 962.54 C 1133.61 962.18 1133.52 961.82 1133.43 961.46 C 1094.87 989.16 1047.59 1005.46 996.5 1005.46 C 866.71 1005.46 761.5 900.25 761.5 770.46 C 761.5 640.67 866.71 535.46 996.5 535.46 C 1126.29 535.46 1231.5 640.68 1231.5 770.46 C 1231.5 821.7 1215.1 869.12 1187.26 907.73 C 1187.63 907.82 1187.99 907.91 1188.35 908.01 C 1201.1 911.48 1211.57 920.49 1217.01 932.31 C 1217.46 933.28 1217.88 934.28 1218.26 935.29 C 1252.51 889.28 1272.78 832.23 1272.78 770.46 C 1272.78 617.88 1149.08 494.18 996.5 494.18 L 996.5 494.18 Z"/>
      </g>
    </g>
  </g>
</svg>